<svg xmlns="http://www.w3.org/2000/svg" width="512" height="512" viewBox="0 0 32 32"><path fill="#000000" d="M10 18v.56a1 1 0 0 1-.68.95L3 21.61V10a1 1 0 0 1 .4-.8l3.2-2.4l-1.2-1.6l-3.2 2.4A3 3 0 0 0 1 10v12a3 3 0 0 0 1.2 2.4l3.2 2.4l1.2-1.6l-2.47-1.85l5.82-1.95A3 3 0 0 0 12 18.56V18zM29.8 7.6l-3.2-2.4l-1.2 1.6l3.2 2.4a1 1 0 0 1 .4.8v11.61l-6.32-2.11a1 1 0 0 1-.68-.95V18h-2v.56a3 3 0 0 0 2.05 2.85l5.82 1.94l-2.47 1.85l1.2 1.6l3.2-2.4A3 3 0 0 0 31 22V10a3 3 0 0 0-1.2-2.4" class="ouiIcon__fillSecondary"/><path fill="#000000" d="M11 6A3 3 0 0 1 8.88.88a3.07 3.07 0 0 1 4.24 0A3 3 0 0 1 11 6m0-4a1 1 0 1 0-.012 2A1 1 0 0 0 11 2m0 30a3 3 0 0 1-2.12-5.12a3.07 3.07 0 0 1 4.24 0A3 3 0 0 1 11 32m0-4a1 1 0 1 0-.012 2A1 1 0 0 0 11 28m0-12a3 3 0 0 1-2.12-5.12a3.07 3.07 0 0 1 4.24 0A3 3 0 0 1 11 16m0-4a1 1 0 1 0-.012 2A1 1 0 0 0 11 12m10-6A3 3 0 0 1 18.88.88a3.07 3.07 0 0 1 4.24 0A3 3 0 0 1 21 6m0-4a1 1 0 1 0-.012 2A1 1 0 0 0 21 2m0 30a3 3 0 0 1-2.12-5.12a3.07 3.07 0 0 1 4.24 0A3 3 0 0 1 21 32m0-4a1 1 0 1 0-.012 2A1 1 0 0 0 21 28m0-12a3 3 0 0 1-2.12-5.12a3.07 3.07 0 0 1 4.24 0A3 3 0 0 1 21 16m0-4a1 1 0 1 0-.012 2A1 1 0 0 0 21 12"/></svg>